<svg width="49" height="40" viewBox="0 0 49 40" fill="none" xmlns="http://www.w3.org/2000/svg">
<path d="M48.0195 20.75C48.0195 22.6484 46.543 24.125 44.75 24.125H12.3711L23.4453 35.3047C24.8164 36.5703 24.8164 38.7852 23.4453 40.0508C22.8125 40.6836 21.9688 41 21.125 41C20.1758 41 19.332 40.6836 18.6992 40.0508L1.82422 23.1758C0.453125 21.9102 0.453125 19.6953 1.82422 18.4297L18.6992 1.55469C19.9648 0.183594 22.1797 0.183594 23.4453 1.55469C24.8164 2.82031 24.8164 5.03516 23.4453 6.30078L12.3711 17.375H44.75C46.543 17.375 48.0195 18.957 48.0195 20.75Z" fill="#F9DEF2"/>
</svg>
