<svg width="49" height="40" viewBox="0 0 49 40" fill="none" xmlns="http://www.w3.org/2000/svg">
<path d="M47.0703 23.1758L30.1953 40.0508C29.5625 40.6836 28.7188 41 27.875 41C26.9258 41 26.082 40.6836 25.4492 40.0508C24.0781 38.7852 24.0781 36.5703 25.4492 35.3047L36.5234 24.125H4.25C2.35156 24.125 0.875 22.6484 0.875 20.75C0.875 18.957 2.35156 17.375 4.25 17.375H36.5234L25.4492 6.30078C24.0781 5.03516 24.0781 2.82031 25.4492 1.55469C26.7148 0.183594 28.9297 0.183594 30.1953 1.55469L47.0703 18.4297C48.4414 19.6953 48.4414 21.9102 47.0703 23.1758Z" fill="#F9DEF2"/>
</svg>
