<svg xmlns="http://www.w3.org/2000/svg" width="1520" height="760" viewBox="0 0 1520 760" role="img" aria-labelledby="title desc">
  <title id="title">AI-generated code ownership dashboard</title>
  <desc id="desc">A full-width engineering dashboard showing fast AI code generation flowing into review, tests, documentation, monitoring, and maintenance ownership.</desc>
  <defs>
    <linearGradient id="bg" x1="0" x2="1" y1="0" y2="1">
      <stop offset="0" stop-color="#08111f"/>
      <stop offset=".48" stop-color="#102335"/>
      <stop offset="1" stop-color="#18251c"/>
    </linearGradient>
    <linearGradient id="panel" x1="0" x2="1" y1="0" y2="1">
      <stop offset="0" stop-color="#173047"/>
      <stop offset="1" stop-color="#0d1a29"/>
    </linearGradient>
    <linearGradient id="flow" x1="0" x2="1">
      <stop offset="0" stop-color="#a2ff33"/>
      <stop offset=".5" stop-color="#38d7ff"/>
      <stop offset="1" stop-color="#f7d56f"/>
    </linearGradient>
    <filter id="shadow" x="-20%" y="-20%" width="140%" height="140%">
      <feDropShadow dx="0" dy="18" stdDeviation="18" flood-color="#000" flood-opacity=".35"/>
    </filter>
  </defs>
  <rect width="1520" height="760" fill="url(#bg)"/>
  <path d="M0 650 C210 570 320 690 520 610 C760 515 900 650 1120 555 C1300 478 1415 516 1520 470 L1520 760 L0 760 Z" fill="#203322" opacity=".7"/>
  <path d="M132 118 H1388 V642 H132 Z" fill="#07101c" opacity=".55"/>
  <g filter="url(#shadow)">
    <rect x="176" y="142" width="1168" height="476" rx="18" fill="url(#panel)" stroke="#ffffff" stroke-opacity=".14"/>
    <rect x="176" y="142" width="1168" height="66" rx="18" fill="#0f1e2e"/>
    <circle cx="220" cy="175" r="7" fill="#ff6868"/>
    <circle cx="246" cy="175" r="7" fill="#f7d56f"/>
    <circle cx="272" cy="175" r="7" fill="#81ee8e"/>
    <text x="316" y="181" fill="#dbeafe" font-family="Inter, Arial, sans-serif" font-size="18" font-weight="700">AI code ownership review</text>
    <text x="1116" y="181" fill="#a2ff33" font-family="Inter, Arial, sans-serif" font-size="14" font-weight="700">draft speed != lifecycle cost</text>
  </g>
  <g font-family="Inter, Arial, sans-serif">
    <rect x="224" y="260" width="250" height="222" rx="14" fill="#111f31" stroke="#38d7ff" stroke-opacity=".45"/>
    <text x="254" y="307" fill="#38d7ff" font-size="18" font-weight="800">GENERATE</text>
    <text x="254" y="346" fill="#ffffff" font-size="42" font-weight="900">fast</text>
    <text x="254" y="381" fill="#b7c6d8" font-size="18">first draft</text>
    <path d="M254 425 h150" stroke="#38d7ff" stroke-width="8" stroke-linecap="round"/>
    <path d="M254 450 h92" stroke="#a2ff33" stroke-width="8" stroke-linecap="round"/>
    <rect x="546" y="248" width="182" height="92" rx="12" fill="#15263a" stroke="#ffffff" stroke-opacity=".16"/>
    <text x="584" y="287" fill="#ffffff" font-size="21" font-weight="800">review</text>
    <text x="584" y="316" fill="#9fb0c5" font-size="14">pattern fit</text>
    <rect x="778" y="248" width="182" height="92" rx="12" fill="#15263a" stroke="#ffffff" stroke-opacity=".16"/>
    <text x="827" y="287" fill="#ffffff" font-size="21" font-weight="800">tests</text>
    <text x="820" y="316" fill="#9fb0c5" font-size="14">proof path</text>
    <rect x="1010" y="248" width="182" height="92" rx="12" fill="#15263a" stroke="#ffffff" stroke-opacity=".16"/>
    <text x="1044" y="287" fill="#ffffff" font-size="21" font-weight="800">docs</text>
    <text x="1042" y="316" fill="#9fb0c5" font-size="14">why it exists</text>
    <rect x="546" y="414" width="182" height="92" rx="12" fill="#15263a" stroke="#ffffff" stroke-opacity=".16"/>
    <text x="586" y="453" fill="#ffffff" font-size="21" font-weight="800">ship</text>
    <text x="584" y="482" fill="#9fb0c5" font-size="14">small durable diff</text>
    <rect x="778" y="414" width="182" height="92" rx="12" fill="#15263a" stroke="#ffffff" stroke-opacity=".16"/>
    <text x="806" y="453" fill="#ffffff" font-size="21" font-weight="800">monitor</text>
    <text x="813" y="482" fill="#9fb0c5" font-size="14">production signal</text>
    <rect x="1010" y="414" width="182" height="92" rx="12" fill="#15263a" stroke="#ffffff" stroke-opacity=".16"/>
    <text x="1038" y="453" fill="#ffffff" font-size="21" font-weight="800">maintain</text>
    <text x="1044" y="482" fill="#9fb0c5" font-size="14">future change</text>
    <path d="M486 371 C516 371 516 294 546 294" fill="none" stroke="url(#flow)" stroke-width="8" stroke-linecap="round"/>
    <path d="M728 294 H778" fill="none" stroke="url(#flow)" stroke-width="8" stroke-linecap="round"/>
    <path d="M960 294 H1010" fill="none" stroke="url(#flow)" stroke-width="8" stroke-linecap="round"/>
    <path d="M1101 340 V414" fill="none" stroke="url(#flow)" stroke-width="8" stroke-linecap="round"/>
    <path d="M1010 460 H960" fill="none" stroke="url(#flow)" stroke-width="8" stroke-linecap="round"/>
    <path d="M778 460 H728" fill="none" stroke="url(#flow)" stroke-width="8" stroke-linecap="round"/>
    <path d="M638 414 V340" fill="none" stroke="url(#flow)" stroke-width="8" stroke-linecap="round"/>
    <text x="224" y="558" fill="#f7d56f" font-size="22" font-weight="900">Can we afford to own this?</text>
    <text x="224" y="588" fill="#b7c6d8" font-size="16">AI changes the draft speed. Engineering still owns the lifecycle.</text>
  </g>
</svg>
